<svg width="683" height="683" viewBox="0 0 683 683" fill="none" xmlns="http://www.w3.org/2000/svg">
<g clip-path="url(#clip0_1_2)">
<rect x="138" y="125" width="415" height="376" fill="white"/>
<path d="M308 1.46667C241.067 8.80001 178.133 34.6667 127.333 75.6C110.133 89.4667 82 118.4 69.6 134.933C34.2667 182.133 11.7333 236 3.19999 294C0.266653 313.6 -0.66668 351.067 1.19999 370.667C6.79999 428.4 25.2 481.733 55.2 527.2C110.4 611.067 194.8 664.8 294 679.467C313.6 682.4 351.067 683.333 370.667 681.467C428.4 675.867 481.733 657.467 527.2 627.467C611.067 572.267 664.8 487.867 679.467 388.667C682.4 369.067 683.333 331.6 681.467 312C674.667 242.133 649.733 180.267 607.067 127.333C593.2 110.133 564.267 82 547.733 69.6C500.533 34.2667 447.067 12 388.667 3.20001C372.533 0.800005 323.733 -0.266662 308 1.46667ZM429.2 314.533C475.467 395.467 513.333 461.867 513.333 462.133C513.333 462.4 437.467 462.667 344.667 462.667C251.867 462.667 176 462.4 176 462C176 460.933 344.4 166.533 344.8 167.067C344.933 167.2 383.067 233.6 429.2 314.533Z" fill="black"/>
</g>
<defs>
<clipPath id="clip0_1_2">
<rect width="682.667" height="682.667" fill="white"/>
</clipPath>
</defs>
</svg>
